<?xml version="1.0" encoding="UTF-8" standalone="no"?>
<svg
   xmlns:dc="http://purl.org/dc/elements/1.1/"
   xmlns:cc="http://creativecommons.org/ns#"
   xmlns:rdf="http://www.w3.org/1999/02/22-rdf-syntax-ns#"
   xmlns:svg="http://www.w3.org/2000/svg"
   xmlns="http://www.w3.org/2000/svg"
   xmlns:sodipodi="http://sodipodi.sourceforge.net/DTD/sodipodi-0.dtd"
   xmlns:inkscape="http://www.inkscape.org/namespaces/inkscape"
   inkscape:version="1.0 (4035a4f, 2020-05-01)"
   sodipodi:docname="title-page-background.svg"
   viewBox="0 0 793.70073 1122.5197"
   height="297mm"
   width="210mm"
   xml:space="preserve"
   id="svg10"
   version="1.1"><metadata
     id="metadata16"><rdf:RDF><cc:Work
         rdf:about=""><dc:format>image/svg+xml</dc:format><dc:type
           rdf:resource="http://purl.org/dc/dcmitype/StillImage" /><dc:title></dc:title></cc:Work></rdf:RDF></metadata><defs
     id="defs14"><filter
       id="filter429"
       inkscape:label="Greyscale"
       style="color-interpolation-filters:sRGB"><feColorMatrix
         result="fbSourceGraphic"
         id="feColorMatrix427"
         values="0.21 0.72 0.072 0 0 0.21 0.72 0.072 0 0 0.21 0.72 0.072 0 0 0 0 0 1 0 " /><feColorMatrix
         id="feColorMatrix431"
         values="0 0 0 -1 0 0 0 0 -1 0 0 0 0 -1 0 0 0 0 1 0"
         in="fbSourceGraphic"
         result="fbSourceGraphicAlpha" /><feColorMatrix
         in="fbSourceGraphic"
         values="0.21 0.72 0.072 0 0 0.21 0.72 0.072 0 0 0.21 0.72 0.072 0 0 0 0 0 1 0 "
         id="feColorMatrix433" /></filter></defs><sodipodi:namedview
     inkscape:current-layer="g20"
     inkscape:window-maximized="0"
     inkscape:window-y="23"
     inkscape:window-x="0"
     inkscape:cy="773.41577"
     inkscape:cx="446.78005"
     inkscape:zoom="0.80875"
     inkscape:document-units="mm"
     units="mm"
     showgrid="false"
     id="namedview12"
     inkscape:window-height="855"
     inkscape:window-width="1438"
     inkscape:pageshadow="2"
     inkscape:pageopacity="0"
     guidetolerance="10"
     gridtolerance="10"
     objecttolerance="10"
     borderopacity="1"
     bordercolor="#666666"
     pagecolor="#ffffff" /><g
     transform="matrix(1.3333333,0,0,-1.3333333,0,800)"
     inkscape:label="ink_ext_XXXXXX"
     inkscape:groupmode="layer"
     id="g18"><g
       transform="scale(0.1)"
       id="g20"><g
         style="opacity:0.1;filter:url(#filter429)"
         transform="matrix(0.75264252,0,0,-0.35730413,-23.846755,-272.70688)"
         id="g425"><path
           d="m 198.418,5775.93 c 75.969,72.49 160.805,156.02 219.555,224.07 h -87.172 c -89.242,-93.71 -185.34,-217.77 -229.567,-283.62 -51.7223,-77.52 -8.2106,-40.54 97.184,59.55"
           style="fill:#211d1d;fill-opacity:1;fill-rule:nonzero;stroke:none"
           id="path24" /><path
           d="m 242.262,5706.24 c 47.871,74.46 -3.313,68.68 -114.313,-37.35 C 86.6992,5629.77 42.2969,5581.53 0,5532.23 v -89.4 c 100.879,97.58 201.992,200.13 242.262,263.41"
           style="fill:#211d1d;fill-opacity:1;fill-rule:nonzero;stroke:none"
           id="path26" /><path
           d="m 0,5386.21 v -62.5 c 4.82422,6.62 9.31641,13.01 13.0859,18.95 28.3907,44.2 21.1719,59.97 -13.0859,43.55"
           style="fill:#211d1d;fill-opacity:1;fill-rule:nonzero;stroke:none"
           id="path28" /><path
           d="m 402.871,5818.55 c -46.82,-74.35 10.266,-72.05 127.496,-17.92 111.215,51.79 231.918,130.38 278.68,199.37 H 585.129 C 507.141,5942.98 435.406,5869.87 402.871,5818.55"
           style="fill:#211d1d;fill-opacity:1;fill-rule:nonzero;stroke:none"
           id="path30" /><path
           d="m 622.832,5662.41 c 42.133,73.73 -23.352,106.51 -146.273,49.13 -122.926,-56.61 -262.207,-185.36 -311.098,-262.33 -48.898,-77.55 16.586,-70.36 146.273,-10.5 129.684,60.39 268.957,149.21 311.098,223.7"
           style="fill:#211d1d;fill-opacity:1;fill-rule:nonzero;stroke:none"
           id="path32" /><path
           d="m 430.605,5313.95 c 43.68,76.6 -30.683,109.79 -166.097,46.58 C 171.145,5317.55 70.332,5238.16 0,5166.73 V 5038.1 c 26.1953,9.17 57.5195,22.28 93.0898,38.69 142.7262,66.48 293.8362,159.69 337.5152,237.16"
           style="fill:#211d1d;fill-opacity:1;fill-rule:nonzero;stroke:none"
           id="path34" /><path
           d="m 239.457,4965.75 c 45.215,79.46 -38.516,113.06 -187.0156,43.75 C 35.0977,5001.52 17.5508,4992.39 0,4982.43 v -204.06 c 110.336,60.72 206.438,128.61 239.457,187.38"
           style="fill:#211d1d;fill-opacity:1;fill-rule:nonzero;stroke:none"
           id="path36" /><path
           d="m 1117.41,5948.33 c 70.07,3.67 141.71,22.25 195.23,51.67 H 966.461 c 9.769,-37.41 66.159,-55.82 150.949,-51.67"
           style="fill:#b2db21;fill-opacity:1;fill-rule:nonzero;stroke:none"
           id="path40" /><path
           d="m 935.207,5595.58 c 129.683,6.8 262.813,55.15 297.363,129.02 34.55,73.21 -37.08,143.44 -160.01,136.91 -122.919,-5.9 -256.044,-87.54 -297.357,-161.21 -41.301,-74.13 30.32,-111.06 160.004,-104.72"
           style="fill:#b2db21;fill-opacity:1;fill-rule:nonzero;stroke:none"
           id="path42" /><path
           d="m 895.855,5519.39 c -135.429,-6.48 -280.14,-93.51 -323.238,-170.14 -43.101,-77.14 37.653,-113.37 180.391,-106.42 142.73,7.48 287.442,56.39 323.232,133.26 35.79,76.13 -44.97,150.5 -180.385,143.3"
           style="fill:#b2db21;fill-opacity:1;fill-rule:nonzero;stroke:none"
           id="path44" /><path
           d="m 570.805,4890.08 c 156.383,8.2 313.16,57.46 350.183,137.34 37.02,79.03 -53.347,157.72 -201.855,149.84 -148.504,-7.09 -305.278,-99.75 -350.184,-179.33 -44.894,-80.16 45.481,-115.45 201.856,-107.85"
           style="fill:#b2db21;fill-opacity:1;fill-rule:nonzero;stroke:none"
           id="path46" /><path
           d="m 1704.44,5875.63 c 117.23,-33.52 233.36,-13.5 259.39,59.23 7.38,20.52 6.89,42.89 0.19,65.14 h -419.54 c 11.17,-51.89 71.94,-98.98 159.96,-124.37"
           style="fill:#f58615;fill-opacity:1;fill-rule:nonzero;stroke:none"
           id="path52" /><path
           d="m 1558.68,5518.36 c 129.68,-37.07 256.67,-19.17 283.63,56.66 26.97,75.29 -50.82,177.61 -173.74,212.68 -122.93,35.56 -249.9,-8.95 -283.62,-82.42 -33.72,-73.82 44.05,-149.48 173.73,-186.92"
           style="fill:#f58615;fill-opacity:1;fill-rule:nonzero;stroke:none"
           id="path54" /><path
           d="m 1412.93,5161.09 c 142.73,-40.8 281.04,-25.33 308.93,53.63 27.91,78.33 -59.23,187.84 -194.66,226.47 -135.42,39.2 -273.74,-6.75 -308.94,-83.12 -35.21,-76.76 51.94,-155.75 194.67,-196.98"
           style="fill:#f58615;fill-opacity:1;fill-rule:nonzero;stroke:none"
           id="path56" /><path
           d="m 1385.83,5094.68 c -148.52,43.02 -298.65,-4.43 -335.35,-83.68 -36.71,-79.71 60.3,-161.98 216.68,-207.17 156.39,-44.7 306.53,-31.97 335.35,50.11 28.83,81.37 -68.18,198.37 -216.68,240.74"
           style="fill:#f58615;fill-opacity:1;fill-rule:nonzero;stroke:none"
           id="path58" /><path
           d="m 2616.41,6000 h -216.78 c 0.4,-0.23 0.77,-0.47 1.17,-0.69 94.91,-52.1 185.32,-53.08 215.61,0.69"
           style="fill:#ea038c;fill-opacity:1;fill-rule:nonzero;stroke:none"
           id="path64" /><path
           d="m 2291.48,5626.58 c 117.23,-64.36 227.46,-63.22 246.2,13.32 18.74,76.17 -56.07,195.55 -167.07,256.46 -111,61.22 -221.23,42.75 -246.2,-30.09 -24.96,-73.05 49.84,-175.08 167.07,-239.69"
           style="fill:#ea038c;fill-opacity:1;fill-rule:nonzero;stroke:none"
           id="path66" /><path
           d="m 2182.16,5253.85 c 129.68,-71.19 250.51,-74.21 269.89,5.62 19.38,79.4 -64.55,207.93 -187.48,275.37 -122.93,67.82 -243.75,50.88 -269.88,-24.91 -26.14,-76.04 57.79,-184.59 187.47,-256.08"
           style="fill:#ea038c;fill-opacity:1;fill-rule:nonzero;stroke:none"
           id="path68" /><path
           d="m 2072.84,4881.13 c 142.74,-78.37 274.66,-85.94 294.67,-2.81 20.01,82.64 -73.54,220.74 -208.96,295.04 -135.42,74.73 -267.35,59.43 -294.67,-19.31 -27.31,-79.03 66.23,-194.23 208.96,-272.92"
           style="fill:#ea038c;fill-opacity:1;fill-rule:nonzero;stroke:none"
           id="path70" /><path
           d="m 2052.52,4811.84 c -148.51,81.96 -292,68.47 -320.51,-13.23 -28.53,-82 75.13,-203.97 231.51,-290.2 156.38,-85.87 299.88,-98.39 320.52,-11.95 20.64,85.89 -83.02,233.91 -231.52,315.38"
           style="fill:#ea038c;fill-opacity:1;fill-rule:nonzero;stroke:none"
           id="path72" /><path
           d="m 3191.23,6000 h -100.99 c 42.37,-17.44 78.59,-17.6 100.99,0"
           style="fill:#51aee5;fill-opacity:1;fill-rule:nonzero;stroke:none"
           id="path78" /><path
           d="m 2951.4,5641.69 c 105.39,-77.68 199.83,-82.14 210.94,-3.91 11.09,78.02 -60.71,205.42 -160.38,278.86 -99.67,73.63 -194.11,68.16 -210.94,-5.71 -16.82,-73.97 54.99,-191.42 160.38,-269.24"
           style="fill:#51aee5;fill-opacity:1;fill-rule:nonzero;stroke:none"
           id="path80" /><path
           d="m 2878.52,5245.29 c 117.23,-86.41 221.55,-95.87 233,-14.1 11.45,81.47 -69.25,219.21 -180.25,301 -111,82.02 -215.32,79.92 -233,2.95 -17.68,-77.11 63.02,-203.27 180.25,-289.85"
           style="fill:#51aee5;fill-opacity:1;fill-rule:nonzero;stroke:none"
           id="path82" /><path
           d="m 2805.64,4848.89 c 129.69,-95.59 244.36,-110.45 256.16,-25.18 11.79,84.96 -78.29,233.43 -201.21,324.02 -122.94,90.83 -237.62,92.4 -256.16,12.32 -18.55,-80.21 71.52,-215.38 201.21,-311.16"
           style="fill:#51aee5;fill-opacity:1;fill-rule:nonzero;stroke:none"
           id="path84" /><path
           d="m 2789.9,4763.27 c -135.43,100.09 -260.95,105.57 -280.38,22.39 -19.43,-83.34 80.51,-227.72 223.25,-333.16 142.72,-105.21 268.24,-125.93 280.37,-37.12 12.13,88.45 -87.81,248.1 -223.24,347.89"
           style="fill:#51aee5;fill-opacity:1;fill-rule:nonzero;stroke:none"
           id="path86" /><path
           d="m 2719.21,4378.81 c -148.51,109.76 -285.35,119.44 -305.68,33.15 -20.32,-86.44 89.97,-240.32 246.36,-355.84 156.37,-115.3 293.22,-142.3 305.67,-49.94 12.45,91.95 -97.85,263.2 -246.35,372.63"
           style="fill:#51aee5;fill-opacity:1;fill-rule:nonzero;stroke:none"
           id="path88" /><path
           d="m 3562.62,5909.27 c -88.91,75.65 -168.53,73.16 -177.83,-2.63 -9.29,-75.8 59.5,-199.66 153.65,-279.75 94.15,-80.01 173.77,-81.77 177.83,-1.47 4.06,80.18 -64.74,208.28 -153.65,283.85"
           style="fill:#808080;fill-opacity:1;fill-rule:nonzero;stroke:none"
           id="path90" /><path
           d="m 3527.27,5496.54 c -99.66,84.81 -188.45,86.62 -198.29,7.5 -9.84,-79.15 67.63,-213.01 173.02,-302.67 105.39,-89.58 194.17,-96.37 198.29,-12.3 4.12,83.91 -73.34,222.75 -173.02,307.47"
           style="fill:#808080;fill-opacity:1;fill-rule:nonzero;stroke:none"
           id="path92" /><path
           d="m 3491.93,5083.83 c -111,94.45 -209.41,100.91 -219.81,18.46 -10.41,-82.48 76.21,-226.72 193.44,-326.46 117.23,-99.66 215.65,-111.88 219.82,-24.05 4.17,87.65 -82.45,237.69 -193.45,332.05"
           style="fill:#808080;fill-opacity:1;fill-rule:nonzero;stroke:none"
           id="path94" /><path
           d="m 3456.59,4671.09 c -122.92,104.62 -231.45,116.09 -242.41,30.32 -10.97,-85.79 85.26,-240.78 214.94,-351.11 129.68,-110.26 238.21,-128.36 242.42,-36.74 4.2,91.4 -92.02,253.05 -214.95,357.53"
           style="fill:#808080;fill-opacity:1;fill-rule:nonzero;stroke:none"
           id="path96" /><path
           d="m 3421.25,4258.38 c -135.43,115.27 -254.55,132.09 -266.11,43.01 -11.53,-89.1 94.81,-255.17 237.54,-376.63 142.73,-121.34 261.86,-145.78 266.09,-50.37 4.24,95.16 -102.09,268.88 -237.52,383.99"
           style="fill:#808080;fill-opacity:1;fill-rule:nonzero;stroke:none"
           id="path98" /><path
           d="m 3385.9,3845.65 c -148.5,126.41 -278.71,148.97 -290.85,56.58 -12.12,-92.41 104.81,-269.91 261.19,-403 156.38,-132.97 286.6,-164.19 290.85,-64.98 4.25,98.95 -112.68,285.15 -261.19,411.4"
           style="fill:#808080;fill-opacity:1;fill-rule:nonzero;stroke:none"
           id="path100" /><path
           d="m 4052.6,5634.52 c 83.53,-74.15 149.29,-67.45 146.91,14.7 -2.38,82.11 -68.16,205.13 -146.91,275.05 -78.75,69.91 -144.53,63.23 -146.91,-14.7 -2.39,-77.87 63.39,-200.9 146.91,-275.05"
           style="fill:#4d4d4d;fill-opacity:1;fill-rule:nonzero;stroke:none"
           id="path102" /><path
           d="m 4052.6,5177.12 c 94.16,-83.61 168.36,-81.24 165.74,4.92 -2.63,86.1 -76.82,219.64 -165.74,298.6 -88.92,78.95 -163.12,76.59 -165.74,-4.93 -2.62,-81.47 71.59,-215 165.74,-298.59"
           style="fill:#4d4d4d;fill-opacity:1;fill-rule:nonzero;stroke:none"
           id="path104" /><path
           d="m 4052.6,4719.7 c 105.39,-93.57 188.51,-95.99 185.64,-5.81 -2.85,90.13 -85.97,234.59 -185.64,323.1 -99.67,88.51 -182.79,90.93 -185.65,5.81 -2.86,-85.05 80.25,-229.5 185.65,-323.1"
           style="fill:#4d4d4d;fill-opacity:1;fill-rule:nonzero;stroke:none"
           id="path106" /><path
           d="m 4052.6,4262.29 c 117.22,-104.1 209.74,-111.7 206.64,-17.48 -3.11,94.14 -95.65,249.98 -206.64,348.55 -111,98.58 -203.52,106.18 -206.63,17.48 -3.12,-88.63 89.4,-244.45 206.63,-348.55"
           style="fill:#4d4d4d;fill-opacity:1;fill-rule:nonzero;stroke:none"
           id="path108" /><path
           d="m 4052.6,3804.88 c 129.68,-115.16 232.06,-128.35 228.68,-30.09 -3.38,98.16 -105.76,265.76 -228.68,374.92 -122.93,109.17 -225.3,122.38 -228.68,30.1 -3.38,-92.18 98.99,-259.77 228.68,-374.93"
           style="fill:#4d4d4d;fill-opacity:1;fill-rule:nonzero;stroke:none"
           id="path110" /><path
           d="m 4052.6,3347.47 c 142.73,-126.77 255.47,-145.98 251.81,-43.66 -3.65,102.21 -116.38,281.99 -251.81,402.26 -135.43,120.28 -248.16,139.5 -251.81,43.65 -3.65,-95.73 109.07,-275.49 251.81,-402.25"
           style="fill:#4d4d4d;fill-opacity:1;fill-rule:nonzero;stroke:none"
           id="path112" /><path
           d="m 4052.6,2890.06 c 156.38,-138.9 279.97,-164.56 276.03,-58.17 -3.94,106.25 -127.54,298.63 -276.03,430.54 -148.51,131.89 -272.08,157.58 -276.02,58.17 -3.94,-99.3 119.63,-291.65 276.02,-430.54"
           style="fill:#4d4d4d;fill-opacity:1;fill-rule:nonzero;stroke:none"
           id="path114" /><path
           d="m 4353.73,5964.57 c 3.9,-79.61 66.66,-196.2 140.15,-258.66 73.5,-62.51 126.39,-43.87 118.16,39.45 -8.19,82.83 -70.23,195.5 -138.91,254.64 H 4356.7 c -2.52,-9.9 -3.64,-21.64 -2.97,-35.43"
           style="fill:#211d1d;fill-opacity:1;fill-rule:nonzero;stroke:none"
           id="path120" /><path
           d="m 4530.32,5216.61 c 83.53,-71.04 144.11,-55.5 135.36,32.06 -8.75,87.58 -79.69,210.88 -158.45,277.89 -78.74,66.92 -139.36,55 -135.36,-28.58 3.98,-83.48 74.93,-210.37 158.45,-281.37"
           style="fill:#211d1d;fill-opacity:1;fill-rule:nonzero;stroke:none"
           id="path122" /><path
           d="m 4566.76,4727.32 c 94.16,-80.09 162.93,-68.04 153.65,23.79 -9.3,91.84 -88.91,225.24 -177.84,300.89 -88.92,75.58 -157.69,67.79 -153.65,-19.66 4.07,-87.35 83.68,-224.98 177.84,-305.02"
           style="fill:#211d1d;fill-opacity:1;fill-rule:nonzero;stroke:none"
           id="path124" /><path
           d="m 4603.2,4238.05 c 105.39,-89.66 182.84,-81.48 172.99,14.61 -9.81,96.13 -98.6,239.97 -198.27,324.78 -99.68,84.71 -177.13,81.51 -173.01,-9.81 4.13,-91.19 92.89,-239.99 198.29,-329.58"
           style="fill:#211d1d;fill-opacity:1;fill-rule:nonzero;stroke:none"
           id="path126" /><path
           d="m 4639.64,3748.75 c 117.23,-99.74 203.84,-95.78 193.45,4.61 -10.4,100.38 -108.82,255.07 -219.82,349.53 -111,94.35 -197.61,96.15 -193.45,0.97 4.18,-95.03 102.58,-255.45 219.82,-355.11"
           style="fill:#211d1d;fill-opacity:1;fill-rule:nonzero;stroke:none"
           id="path128" /><path
           d="m 4676.07,3259.44 c 129.67,-110.31 225.92,-110.92 214.95,-6.24 -10.94,104.66 -119.5,270.53 -242.41,375.12 -122.93,104.48 -219.16,111.76 -214.96,12.73 4.21,-98.84 112.76,-271.35 242.42,-381.61"
           style="fill:#211d1d;fill-opacity:1;fill-rule:nonzero;stroke:none"
           id="path130" /><path
           d="m 4712.52,2770.17 c 142.73,-121.45 249.07,-126.96 237.53,-18.02 -11.54,108.96 -130.68,286.36 -266.1,401.62 -135.42,115.12 -241.76,128.28 -237.53,25.38 4.24,-102.63 123.37,-287.63 266.1,-408.98"
           style="fill:#211d1d;fill-opacity:1;fill-rule:nonzero;stroke:none"
           id="path132" /><path
           d="m 4748.96,2280.88 c 156.38,-133.09 273.33,-143.89 261.2,-30.64 -12.15,113.28 -142.36,302.56 -290.87,428.97 -148.51,126.25 -265.44,145.74 -261.19,39.01 4.24,-106.43 134.48,-304.37 290.86,-437.34"
           style="fill:#211d1d;fill-opacity:1;fill-rule:nonzero;stroke:none"
           id="path134" /><path
           d="m 4862.29,5871.44 c 64.06,-47.3 105.05,-15.21 91.58,68.22 -3.15,19.47 -8.9,39.89 -16.49,60.34 H 4762.5 c 25.39,-51.81 61.77,-100.55 99.79,-128.56"
           style="fill:#ec127c;fill-opacity:1;fill-rule:nonzero;stroke:none"
           id="path136" /><path
           d="m 4935.14,5353.02 c 73.5,-54.25 121.48,-23.63 107.18,64.25 -14.3,87.93 -81.98,197.46 -151.14,248.53 -69.16,50.96 -117.14,26.36 -107.16,-58.42 9.98,-84.66 77.64,-200.2 151.12,-254.36"
           style="fill:#ec127c;fill-opacity:1;fill-rule:nonzero;stroke:none"
           id="path138" /><path
           d="m 5008.04,4834.58 c 83.52,-61.67 138.94,-32.76 123.82,59.56 -15.13,92.42 -91.23,210.67 -169.99,268.84 -78.74,58.02 -134.2,36.34 -123.83,-52.62 10.36,-88.77 86.47,-214.22 170,-275.78"
           style="fill:#ec127c;fill-opacity:1;fill-rule:nonzero;stroke:none"
           id="path140" /><path
           d="m 5080.91,4316.15 c 94.17,-69.51 157.53,-42.63 141.57,54.17 -15.98,96.89 -101,224.16 -189.93,289.85 -88.91,65.51 -152.3,47.13 -141.55,-45.96 10.73,-92.9 95.77,-228.67 189.91,-298.06"
           style="fill:#ec127c;fill-opacity:1;fill-rule:nonzero;stroke:none"
           id="path142" /><path
           d="m 5153.79,3797.73 c 105.39,-77.83 177.19,-53.23 160.38,48.03 -16.83,101.37 -111.26,237.95 -210.93,311.58 -99.67,73.44 -171.47,58.8 -160.38,-38.43 11.12,-97 105.54,-243.5 210.93,-321.18"
           style="fill:#ec127c;fill-opacity:1;fill-rule:nonzero;stroke:none"
           id="path144" /><path
           d="m 5226.68,3279.28 c 117.23,-86.57 197.93,-64.53 180.25,41.22 -17.68,105.88 -122.02,252.02 -233,334.03 -111.01,81.78 -191.71,71.3 -180.26,-30.07 11.45,-101.1 115.77,-258.76 233.01,-345.18"
           style="fill:#ec127c;fill-opacity:1;fill-rule:nonzero;stroke:none"
           id="path146" /><path
           d="m 5299.55,2760.85 c 129.68,-95.77 219.77,-76.53 201.22,33.71 -18.55,110.34 -133.24,266.3 -256.15,357.14 -122.93,90.57 -213.02,84.68 -201.22,-20.81 11.8,-105.18 126.48,-274.44 256.15,-370.04"
           style="fill:#ec127c;fill-opacity:1;fill-rule:nonzero;stroke:none"
           id="path148" /><path
           d="m 5372.43,2242.43 c 142.74,-105.44 242.69,-89.27 223.25,25.45 -19.43,114.87 -144.96,280.91 -280.4,381.01 -135.4,99.78 -235.35,98.88 -223.22,-10.73 12.12,-109.23 137.65,-290.52 280.37,-395.73"
           style="fill:#ec127c;fill-opacity:1;fill-rule:nonzero;stroke:none"
           id="path150" /><path
           d="m 5445.3,1724 c 156.4,-115.53 266.69,-102.7 246.38,16.51 -20.33,119.38 -157.19,295.77 -305.7,405.54 -148.51,109.43 -258.8,113.98 -246.35,0.27 12.44,-113.31 149.31,-307.03 305.67,-422.32"
           style="fill:#ec127c;fill-opacity:1;fill-rule:nonzero;stroke:none"
           id="path152" /><path
           d="m 5267.1,5608.49 c 64.09,-35.28 100.41,10.56 81.15,97.31 -19.25,86.86 -83.64,180.29 -143.8,213.44 -60.17,33.02 -96.5,-5.34 -81.14,-90.08 15.35,-84.59 79.74,-185.49 143.79,-220.67"
           style="fill:#8a1a8e;fill-opacity:1;fill-rule:nonzero;stroke:none"
           id="path158" /><path
           d="m 5214.3,5305.11 c 16.05,-88.96 88.64,-198.36 162.13,-238.72 73.49,-40.47 116.56,5.74 96.18,97.09 -20.38,91.48 -92.97,191.87 -162.13,229.98 -69.16,37.94 -112.23,0.78 -96.18,-88.35"
           style="fill:#8a1a8e;fill-opacity:1;fill-rule:nonzero;stroke:none"
           id="path160" /><path
           d="m 5304.22,4781.73 c 16.73,-93.3 98.01,-211.58 181.53,-257.44 83.53,-46.01 133.81,0.42 112.29,96.38 -21.51,96.11 -102.79,203.6 -181.54,247.02 -78.75,43.19 -129.02,7.58 -112.28,-85.96"
           style="fill:#8a1a8e;fill-opacity:1;fill-rule:nonzero;stroke:none"
           id="path162" /><path
           d="m 5595.07,3982.19 c 94.16,-51.86 152.13,-5.37 129.48,95.19 -22.66,100.73 -113.1,215.51 -202.03,264.54 -88.91,48.78 -146.87,15.04 -129.45,-82.88 17.4,-97.65 107.85,-225.15 202,-276.85"
           style="fill:#8a1a8e;fill-opacity:1;fill-rule:nonzero;stroke:none"
           id="path164" /><path
           d="m 5704.39,3440.1 c 105.38,-58.07 171.54,-11.67 147.74,93.51 -23.81,105.37 -123.91,227.55 -223.58,282.52 -99.66,54.67 -165.8,23.22 -147.72,-79.08 18.08,-101.98 118.17,-239.09 223.56,-296.95"
           style="fill:#8a1a8e;fill-opacity:1;fill-rule:nonzero;stroke:none"
           id="path166" /><path
           d="m 5813.7,2897.99 c 117.26,-64.61 192.04,-18.42 167.08,91.39 -24.96,109.98 -135.18,239.75 -246.2,300.98 -111.01,60.9 -185.79,32.05 -167.05,-74.62 18.73,-106.31 128.95,-253.36 246.17,-317.75"
           style="fill:#8a1a8e;fill-opacity:1;fill-rule:nonzero;stroke:none"
           id="path168" /><path
           d="m 5923.04,2355.89 c 129.67,-71.49 213.6,-25.62 187.47,88.79 -26.13,114.63 -146.96,252.08 -269.9,319.9 -122.91,67.43 -206.85,41.59 -187.47,-69.45 19.39,-110.62 140.22,-268.03 269.9,-339.24"
           style="fill:#8a1a8e;fill-opacity:1;fill-rule:nonzero;stroke:none"
           id="path170" /><path
           d="m 6032.36,1813.81 c 142.73,-78.7 236.27,-33.35 208.95,85.69 -27.33,119.3 -159.24,264.57 -294.67,339.31 -135.42,74.3 -228.96,51.83 -208.95,-63.6 20.02,-114.91 151.93,-283.04 294.67,-361.4"
           style="fill:#8a1a8e;fill-opacity:1;fill-rule:nonzero;stroke:none"
           id="path172" /><path
           d="m 6141.66,1271.71 c 156.4,-86.25 260.06,-41.5 231.54,82.16 -28.53,123.96 -172.02,277.18 -320.53,359.15 -148.5,81.47 -252.15,62.79 -231.52,-57 20.64,-119.2 164.13,-298.45 320.51,-384.31"
           style="fill:#8a1a8e;fill-opacity:1;fill-rule:nonzero;stroke:none"
           id="path174" /><path
           d="m 5568.78,6000 h -56.92 c 4.8,-2.32 9.59,-4.34 14.33,-5.7 17.31,-4.98 31.69,-2.56 42.59,5.7"
           style="fill:#7ecb2a;fill-opacity:1;fill-rule:nonzero;stroke:none"
           id="path180" /><path
           d="m 5671.95,5436.74 c 64.07,-18.45 95.74,43.86 70.69,132.52 -25.01,88.78 -94.08,169.74 -154.25,187.1 -60.16,17.17 -91.82,-35.18 -70.69,-122.87 21.12,-87.51 90.18,-178.43 154.25,-196.75"
           style="fill:#7ecb2a;fill-opacity:1;fill-rule:nonzero;stroke:none"
           id="path182" /><path
           d="m 5644.58,5090.07 c 22.12,-92.04 99.64,-189.86 173.13,-210.89 73.49,-21.16 111.63,43.86 85.18,137.17 -26.44,93.47 -103.95,179.26 -173.12,199.23 -69.17,19.74 -107.31,-33.24 -85.19,-125.51"
           style="fill:#7ecb2a;fill-opacity:1;fill-rule:nonzero;stroke:none"
           id="path184" /><path
           d="m 5871.14,4674.81 c -78.76,22.48 -123.84,-30.86 -100.75,-127.72 23.13,-96.58 109.56,-201.58 193.08,-225.46 83.53,-24.08 128.63,43.65 100.74,141.62 -27.87,98.18 -114.32,188.81 -193.07,211.56"
           style="fill:#7ecb2a;fill-opacity:1;fill-rule:nonzero;stroke:none"
           id="path186" /><path
           d="m 6012.51,4134.05 c -88.92,25.37 -141.47,-28.07 -117.38,-129.51 24.08,-101.09 119.95,-213.56 214.11,-240.47 94.14,-27.15 146.69,43.3 117.37,145.94 -29.32,102.87 -125.17,198.35 -214.1,224.04"
           style="fill:#7ecb2a;fill-opacity:1;fill-rule:nonzero;stroke:none"
           id="path188" /><path
           d="m 6153.89,3593.27 c -99.67,28.43 -160.17,-24.83 -135.11,-130.83 25.07,-105.61 130.82,-225.8 236.22,-255.93 105.37,-30.4 165.87,42.79 135.08,150.08 -30.77,107.57 -136.53,207.86 -236.19,236.68"
           style="fill:#7ecb2a;fill-opacity:1;fill-rule:nonzero;stroke:none"
           id="path190" /><path
           d="m 6400.75,2648.95 c 117.23,-33.83 186.13,42.1 153.88,154.08 -32.25,112.27 -148.37,217.38 -259.38,249.48 -111,31.67 -179.91,-21.15 -153.88,-131.74 26.01,-110.11 142.15,-238.31 259.38,-271.82"
           style="fill:#7ecb2a;fill-opacity:1;fill-rule:nonzero;stroke:none"
           id="path192" /><path
           d="m 6546.52,2091.39 c 129.67,-37.44 207.44,41.31 173.73,157.93 -33.73,116.98 -160.71,226.82 -283.62,262.41 -122.93,35.07 -200.7,-17 -173.76,-132.14 26.97,-114.63 153.97,-251.12 283.65,-288.2"
           style="fill:#7ecb2a;fill-opacity:1;fill-rule:nonzero;stroke:none"
           id="path194" /><path
           d="m 6692.27,1533.83 c 142.74,-41.22 229.88,40.35 194.67,161.64 -35.21,121.69 -173.52,236.3 -308.94,275.49 -135.43,38.64 -222.58,-12.41 -194.68,-132.14 27.91,-119.09 166.21,-264.17 308.95,-304.99"
           style="fill:#7ecb2a;fill-opacity:1;fill-rule:nonzero;stroke:none"
           id="path196" /><path
           d="m 6838.04,976.277 c 156.37,-45.191 253.4,39.263 216.69,165.213 -36.71,126.4 -186.86,245.68 -335.35,288.69 -148.51,42.37 -245.53,-7.34 -216.71,-131.63 28.83,-123.58 178.97,-277.57 335.37,-322.273"
           style="fill:#7ecb2a;fill-opacity:1;fill-rule:nonzero;stroke:none"
           id="path198" /><path
           d="m 5894.59,5948.67 c 27.79,1.38 46.93,21.25 55.43,51.33 h -146.59 c 28.05,-32.44 61.1,-52.9 91.16,-51.33"
           style="fill:#ef2d32;fill-opacity:1;fill-rule:nonzero;stroke:none"
           id="path200" /><path
           d="m 6076.8,5386.59 c 64.06,3.2 91.03,84.37 60.24,173.04 -30.8,88.82 -104.53,152.12 -164.7,149.17 -60.16,-3.17 -87.13,-71.89 -60.26,-160.96 26.9,-88.84 100.63,-164.59 164.72,-161.25"
           style="fill:#ef2d32;fill-opacity:1;fill-rule:nonzero;stroke:none"
           id="path202" /><path
           d="m 6074.86,4994.59 c 28.2,-93.48 110.62,-173.9 184.14,-170.05 73.47,3.64 106.7,90.33 74.18,183.61 -32.52,93.49 -114.96,158.88 -184.12,155.5 -69.17,-3.67 -102.38,-75.31 -74.2,-169.06"
           style="fill:#ef2d32;fill-opacity:1;fill-rule:nonzero;stroke:none"
           id="path204" /><path
           d="m 6325.78,4618.5 c -78.77,-4.18 -118.69,-78.61 -89.2,-177.06 29.48,-98.1 121.08,-183.35 204.61,-178.99 83.52,4.12 123.46,96.56 89.2,194.44 -34.26,98.17 -125.86,165.44 -204.61,161.61"
           style="fill:#ef2d32;fill-opacity:1;fill-rule:nonzero;stroke:none"
           id="path206" /><path
           d="m 6502.48,4073.36 c -88.92,-4.71 -136.05,-81.82 -105.28,-184.96 30.77,-102.72 132.03,-192.95 226.2,-188.01 94.14,4.63 141.27,102.99 105.27,205.49 -35.99,102.82 -137.26,171.8 -226.19,167.48"
           style="fill:#ef2d32;fill-opacity:1;fill-rule:nonzero;stroke:none"
           id="path208" /><path
           d="m 6679.21,3528.2 c -99.68,-5.29 -154.52,-84.9 -122.46,-192.73 32.03,-107.35 143.45,-202.67 248.85,-197.14 105.38,5.17 160.2,109.66 122.45,216.77 -37.76,107.47 -149.17,177.93 -248.84,173.1"
           style="fill:#ef2d32;fill-opacity:1;fill-rule:nonzero;stroke:none"
           id="path210" /><path
           d="m 6987.79,2576.24 c 117.23,5.74 180.22,116.59 140.69,228.33 -39.52,112.11 -161.57,183.85 -272.56,178.5 -111.01,-5.9 -174.01,-87.87 -140.69,-200.39 33.29,-112 155.34,-212.58 272.56,-206.44"
           style="fill:#ef2d32;fill-opacity:1;fill-rule:nonzero;stroke:none"
           id="path212" /><path
           d="m 7170,2014.17 c 129.66,6.34 201.29,123.81 159.98,240.13 -41.31,116.76 -174.43,189.51 -297.34,183.6 -122.92,-6.53 -194.56,-90.67 -160.02,-207.89 34.55,-116.6 167.69,-222.63 297.38,-215.84"
           style="fill:#ef2d32;fill-opacity:1;fill-rule:nonzero;stroke:none"
           id="path214" /><path
           d="m 7352.19,1452.09 c 142.72,6.96 223.49,131.28 180.38,252.2 -43.1,121.41 -187.8,194.97 -323.22,188.46 -135.44,-7.19 -216.19,-93.36 -180.39,-215.3 35.79,-121.18 180.49,-232.83 323.23,-225.36"
           style="fill:#ef2d32;fill-opacity:1;fill-rule:nonzero;stroke:none"
           id="path216" /><path
           d="m 7534.39,890.027 c 156.38,7.602 246.75,139.033 201.86,264.523 -44.9,126.09 -201.69,200.15 -350.18,193.05 -148.51,-7.9 -238.9,-95.9 -201.87,-222.54 37.02,-125.783 193.8,-243.236 350.19,-235.033"
           style="fill:#ef2d32;fill-opacity:1;fill-rule:nonzero;stroke:none"
           id="path218" /><path
           d="m 6481.63,5488.46 c 64.06,29.63 86.37,131.7 49.81,218.06 -36.56,86.58 -114.98,126.65 -175.15,98.89 -60.15,-28.05 -82.46,-115.17 -49.81,-203.59 32.66,-88.15 111.08,-143.18 175.15,-113.36"
           style="fill:#f8a62c;fill-opacity:1;fill-rule:nonzero;stroke:none"
           id="path228" /><path
           d="m 6505.16,5050.98 c 34.25,-92.8 121.6,-149.63 195.11,-115.41 73.48,33.97 101.78,144.84 63.2,235.65 -38.59,91.05 -125.95,129.83 -195.13,97.92 -69.16,-32.25 -97.45,-125.06 -63.18,-218.16"
           style="fill:#f8a62c;fill-opacity:1;fill-rule:nonzero;stroke:none"
           id="path230" /><path
           d="m 6702.75,4499.8 c 35.86,-97.42 132.63,-156.04 216.16,-117.14 83.52,38.59 118.3,158.71 77.65,253.95 -40.63,95.56 -137.4,132.6 -216.15,96.28 -78.76,-36.74 -113.52,-135.26 -77.66,-233.09"
           style="fill:#f8a62c;fill-opacity:1;fill-rule:nonzero;stroke:none"
           id="path232" /><path
           d="m 6992.46,4196.65 c -88.91,-41.48 -130.63,-145.77 -93.18,-248.31 37.44,-102.07 144.12,-162.43 238.27,-118.58 94.15,43.49 135.87,173.29 93.19,272.95 -42.68,100.06 -149.35,134.94 -238.28,93.94"
           style="fill:#f8a62c;fill-opacity:1;fill-rule:nonzero;stroke:none"
           id="path234" /><path
           d="m 7356.18,3276.86 c 105.4,48.68 154.56,188.58 109.82,292.68 -44.73,104.53 -161.81,136.78 -261.48,90.84 -99.68,-46.5 -148.84,-156.56 -109.8,-263.82 39.02,-106.7 156.07,-168.79 261.46,-119.7"
           style="fill:#f8a62c;fill-opacity:1;fill-rule:nonzero;stroke:none"
           id="path236" /><path
           d="m 7416.58,3124.13 c -111,-51.79 -168.1,-167.65 -127.52,-279.62 40.59,-111.33 168.54,-175.16 285.76,-120.56 117.24,54.12 174.33,204.64 127.5,313.14 -46.81,109.01 -174.73,138.19 -285.74,87.04"
           style="fill:#f8a62c;fill-opacity:1;fill-rule:nonzero;stroke:none"
           id="path238" /><path
           d="m 7482.36,2292.19 c 42.14,-115.96 181.43,-181.54 311.11,-121.14 129.67,59.84 195.16,221.44 146.26,334.33 -48.89,113.47 -188.17,139.09 -311.09,82.49 -122.91,-57.36 -188.41,-178.98 -146.28,-295.68"
           style="fill:#f8a62c;fill-opacity:1;fill-rule:nonzero;stroke:none"
           id="path240" /><path
           d="m 7840.69,2051.62 c -135.42,-63.2 -209.77,-190.57 -166.11,-312.03 42.45,-117.17 186.36,-184.04 325.42,-126.74 v 472.58 c -50.88,2.07 -106.29,-9.39 -159.31,-33.81"
           style="fill:#f8a62c;fill-opacity:1;fill-rule:nonzero;stroke:none"
           id="path242" /><path
           d="m 7865.72,1186.73 c 21.86,-60.51 71.35,-107.84 134.28,-132.47 v 432.1 c -114.75,-73.65 -173.82,-189.27 -134.28,-299.63"
           style="fill:#f8a62c;fill-opacity:1;fill-rule:nonzero;stroke:none"
           id="path244" /><path
           d="m 6700.88,5825.06 c 38.42,-85.01 121.51,-113.44 185.58,-52.33 54.39,51.68 75.15,149.22 54.35,227.27 h -247.2 c -18.88,-54.39 -17.8,-119.29 7.27,-174.94"
           style="fill:#51aee5;fill-opacity:1;fill-rule:nonzero;stroke:none"
           id="path246" /><path
           d="m 7141.54,5245.43 c 73.5,69.81 96.87,206.99 52.21,292.42 -44.67,85.74 -136.94,91.35 -206.11,25.72 -69.16,-66.05 -92.54,-182.15 -52.2,-272.05 40.34,-89.53 132.62,-116.21 206.1,-46.09"
           style="fill:#51aee5;fill-opacity:1;fill-rule:nonzero;stroke:none"
           id="path248" /><path
           d="m 7168.94,4757.17 c 42.21,-94.04 144.15,-118.76 227.69,-39.07 83.51,79.34 113.12,229.76 66.12,319.29 -47.02,89.92 -148.95,89.46 -227.71,14.74 -78.75,-75.22 -108.35,-200.45 -66.1,-294.96"
           style="fill:#51aee5;fill-opacity:1;fill-rule:nonzero;stroke:none"
           id="path250" /><path
           d="m 7401.34,4222.03 c 44.12,-98.57 156.21,-121.08 250.37,-31.24 94.15,89.42 130.46,253.79 81.1,347.41 -49.35,94.09 -161.44,86.87 -250.37,2.5 -88.92,-84.93 -125.22,-219.54 -81.1,-318.67"
           style="fill:#51aee5;fill-opacity:1;fill-rule:nonzero;stroke:none"
           id="path252" /><path
           d="m 7729.84,4029.25 c -99.66,-95.2 -143.17,-239.41 -97.17,-343.15 46,-103.11 168.72,-123.18 274.12,-22.62 41.3,39.22 72.93,90.61 93.21,144.44 v 239.34 c -53.78,90.45 -172.93,74.22 -270.16,-18.01"
           style="fill:#51aee5;fill-opacity:1;fill-rule:nonzero;stroke:none"
           id="path254" /><path
           d="m 7862.93,3149.4 c 25.92,-58.27 77.04,-90.05 137.07,-89.26 v 477.81 c -7.66,-6.34 -15.27,-13.03 -22.75,-20.14 -111.02,-106.03 -162.19,-260.03 -114.32,-368.41"
           style="fill:#51aee5;fill-opacity:1;fill-rule:nonzero;stroke:none"
           id="path256" /><path
           d="m 7365.71,5748.55 c 46.42,-83.24 143.62,-72.83 217.11,38.69 41.2,62.32 65.07,141.6 69.19,212.76 h -284.96 c -34.25,-89.5 -36.89,-187.34 -1.34,-251.45"
           style="fill:#ea038c;fill-opacity:1;fill-rule:nonzero;stroke:none"
           id="path258" /><path
           d="m 7874.35,5304.66 c 83.52,126.37 107.94,309.3 54.58,389.6 -53.39,80.75 -160.49,35.15 -239.25,-83.91 -78.75,-119.6 -103.18,-273.77 -54.57,-361.8 48.59,-87.49 155.71,-70.63 239.24,56.11"
           style="fill:#ea038c;fill-opacity:1;fill-rule:nonzero;stroke:none"
           id="path260" /><path
           d="m 7903.4,4747.2 c 22.07,-39.87 56.74,-57.9 96.6,-53.86 v 487.05 c -9.42,-11.88 -18.65,-24.57 -27.59,-38.08 C 7883.5,5007.26 7852.6,4839.6 7903.4,4747.2"
           style="fill:#ea038c;fill-opacity:1;fill-rule:nonzero;stroke:none"
           id="path262" /></g></g></g></svg>
